<?xml version="1.0" standalone="no"?>
<!DOCTYPE svg PUBLIC "-//W3C//DTD SVG 20010904//EN"
 "http://www.w3.org/TR/2001/REC-SVG-20010904/DTD/svg10.dtd">
<svg version="1.0" xmlns="http://www.w3.org/2000/svg"
 width="1280.000000pt" height="1062.000000pt" viewBox="0 0 1280.000000 1062.000000"
 preserveAspectRatio="xMidYMid meet">
<metadata>
Created by potrace 1.16, written by Peter Selinger 2001-2019
</metadata>
<g transform="translate(0.000000,1062.000000) scale(0.100000,-0.100000)"
fill="#000000" stroke="none">
<path d="M366 10531 c11 -12 304 -176 964 -541 212 -117 486 -269 610 -338
124 -69 268 -148 320 -177 132 -72 584 -323 1025 -567 204 -113 390 -217 415
-230 25 -14 216 -120 425 -235 209 -116 394 -218 412 -227 29 -15 190 -16
1894 -16 l1862 0 216 111 c119 62 252 131 296 154 44 24 220 116 390 205 701
367 1065 566 1080 590 3 6 0 12 -7 15 -19 6 -862 115 -3348 431 -239 30 -606
77 -815 104 -414 54 -958 123 -2760 350 -2150 272 -2808 356 -2900 370 -77 13
-92 13 -79 1z m511 -81 c909 -116 1235 -158 2283 -290 1052 -132 1516 -191
2605 -330 264 -33 779 -99 1145 -145 366 -47 735 -94 820 -105 85 -11 349 -45
585 -75 425 -54 1353 -173 1719 -220 103 -13 190 -26 193 -28 9 -9 -327 -193
-832 -457 -77 -40 -162 -85 -190 -100 -27 -15 -165 -87 -305 -160 -140 -73
-331 -173 -424 -222 l-168 -88 -1877 0 -1877 0 -295 163 c-161 90 -472 261
-689 382 -217 120 -579 320 -805 445 -225 125 -624 345 -885 490 -261 144
-536 297 -610 338 -74 41 -153 85 -175 97 -287 158 -612 340 -619 346 -14 13
-25 14 401 -41z"/>
<path d="M12185 9871 c-38 -21 -221 -118 -405 -216 -184 -98 -366 -195 -405
-215 -38 -21 -128 -69 -200 -107 -181 -97 -779 -420 -840 -453 -90 -50 -856
-465 -1045 -566 l-185 -99 520 -6 c286 -3 627 -7 758 -8 l237 -1 1 -152 c1
-228 -5 -224 120 -72 58 71 177 219 264 329 148 186 278 349 660 830 576 724
616 775 599 775 -5 0 -40 -18 -79 -39z m5 -36 c0 -5 -64 -86 -509 -645 -129
-162 -297 -374 -374 -470 -76 -96 -222 -281 -325 -410 -298 -376 -324 -406
-333 -384 -4 10 -8 80 -8 155 -1 115 -4 138 -17 143 -9 3 -330 6 -715 6 -384
0 -699 4 -699 8 0 5 179 105 397 223 218 118 426 230 462 250 280 152 1078
582 1156 624 269 143 549 292 605 323 36 19 106 57 157 83 50 27 111 61 135
74 41 23 68 31 68 20z"/>
<path d="M2240 9126 c0 -6 197 -465 338 -786 l59 -135 199 -3 c109 -2 381 0
604 4 l404 6 -24 20 c-37 30 -206 128 -620 360 -364 204 -732 413 -875 497
-65 38 -85 47 -85 37z m142 -95 c140 -82 334 -192 538 -306 453 -253 834 -473
838 -483 3 -9 -129 -12 -521 -12 -288 0 -538 -3 -554 -6 -29 -6 -30 -5 -80
113 -28 65 -110 254 -182 421 -124 286 -138 322 -126 322 2 0 42 -22 87 -49z"/>
<path d="M2230 6780 l0 -1200 4085 0 4085 0 0 1200 0 1200 -4085 0 -4085 0 0
-1200z m8140 1163 c1 -906 0 -2327 -3 -2329 -2 -2 -1827 -5 -4055 -6 l-4052
-3 0 1178 0 1177 4055 0 c3855 0 4055 -1 4055 -17z"/>
<path d="M3138 7543 c-26 -3 -44 -13 -59 -31 -12 -15 -147 -279 -299 -588
-354 -713 -373 -754 -360 -769 18 -21 95 -27 270 -19 l168 7 16 36 c8 20 25
60 37 89 28 68 55 82 154 82 l75 0 0 -104 c0 -85 3 -105 16 -110 9 -3 103 -6
210 -6 l194 0 10 26 c11 29 12 1324 1 1364 l-7 25 -194 1 c-107 0 -212 -1
-232 -3z m407 -703 l0 -685 -190 0 -190 0 -3 111 -3 110 -92 -4 c-135 -6 -136
-7 -201 -154 l-25 -58 -200 0 c-154 0 -201 3 -201 13 0 26 643 1321 662 1334
21 13 131 20 293 19 l150 -1 0 -685z"/>
<path d="M3142 6978 c-26 -71 -78 -235 -86 -274 -10 -46 8 -55 101 -52 l78 3
3 146 c1 80 -1 163 -6 185 -7 34 -11 39 -39 42 -29 3 -32 0 -51 -50z m66 -135
l2 -160 -31 -7 c-17 -3 -47 -6 -65 -6 -30 0 -34 3 -34 25 0 25 73 262 92 298
5 10 15 16 21 14 8 -2 13 -52 15 -164z"/>
<path d="M4978 7541 c-94 -5 -110 -9 -132 -30 -28 -26 -48 -80 -69 -181 l-14
-65 -8 45 c-17 102 -74 172 -166 206 -59 21 -299 31 -366 15 -212 -52 -361
-176 -423 -352 -15 -43 -24 -97 -27 -164 -4 -92 -3 -104 19 -145 28 -52 84
-99 226 -189 114 -72 162 -114 162 -143 0 -43 -61 -98 -110 -98 -18 0 -20 6
-20 58 0 31 -4 63 -9 70 -17 28 -370 45 -404 20 -31 -25 -48 -205 -25 -282 20
-66 99 -138 183 -167 62 -21 87 -24 220 -24 166 1 231 13 340 65 160 76 273
270 283 486 7 168 2 175 -273 356 -126 83 -144 108 -121 162 14 33 46 53 65
41 6 -3 13 -27 17 -53 3 -26 11 -53 16 -59 14 -17 339 -18 371 -2 30 16 35 25
42 82 7 47 8 48 26 31 14 -13 45 -19 109 -24 49 -4 93 -10 97 -13 9 -10 -8
-97 -102 -507 -46 -201 -88 -391 -94 -423 -12 -64 -3 -100 26 -112 10 -4 97
-10 193 -12 142 -5 178 -3 187 8 6 8 34 113 63 234 106 448 182 747 202 789
13 29 34 36 111 36 89 0 123 19 152 84 28 62 55 162 55 200 0 16 -9 32 -26 43
-23 15 -64 17 -347 19 -177 1 -370 -1 -429 -5z m-398 -47 c107 -32 154 -109
153 -250 -1 -88 -8 -110 -36 -118 -29 -8 -262 -7 -309 0 -34 6 -38 10 -38 36
0 37 -25 98 -41 98 -6 0 -26 -9 -44 -20 -60 -37 -70 -113 -20 -160 13 -12 92
-68 177 -124 176 -116 189 -132 195 -240 6 -96 -17 -202 -66 -302 -96 -193
-249 -274 -526 -277 -188 -2 -277 24 -348 102 -56 62 -68 127 -46 261 l12 69
63 7 c59 6 94 4 257 -12 l57 -6 0 -43 c0 -54 13 -90 36 -99 27 -10 103 32 130
74 20 29 23 42 15 61 -12 32 -70 85 -149 134 -214 135 -253 177 -260 275 -14
191 88 386 250 478 49 28 149 64 208 76 52 10 276 -3 330 -20z m1165 12 c19
-14 19 -16 2 -86 -25 -106 -55 -169 -88 -185 -17 -9 -57 -15 -104 -15 -89 0
-106 -12 -130 -92 -24 -82 -139 -540 -190 -763 -26 -110 -52 -204 -58 -208
-13 -9 -326 -1 -352 9 -31 12 -22 69 95 569 67 285 90 399 90 440 0 39 -14 45
-107 45 -34 0 -74 5 -88 10 -26 10 -27 12 -20 67 7 58 38 167 54 191 16 26 77
30 477 31 328 1 404 -2 419 -13z"/>
<path d="M6172 7540 c-254 -36 -387 -179 -506 -542 -66 -199 -98 -352 -104
-496 -8 -204 18 -267 137 -331 77 -41 171 -61 287 -61 260 0 422 99 539 330
41 82 109 294 135 422 24 116 45 397 35 473 -6 48 -12 58 -61 105 -84 79 -137
99 -280 104 -65 3 -147 1 -182 -4z m357 -49 c24 -12 66 -44 94 -69 l50 -47 -6
-200 c-6 -229 -28 -358 -95 -555 -115 -339 -262 -471 -542 -487 -151 -9 -278
21 -367 86 -68 49 -77 75 -77 231 -1 161 22 289 90 509 87 279 181 429 312
499 96 51 156 62 337 59 145 -2 164 -5 204 -26z"/>
<path d="M6225 7238 c-34 -20 -53 -50 -88 -138 -67 -165 -157 -518 -157 -612
0 -49 15 -78 39 -78 60 0 120 128 197 417 59 222 79 384 52 411 -15 15 -18 15
-43 0z m32 -95 c-7 -91 -84 -406 -132 -541 -47 -131 -94 -195 -117 -160 -21
30 14 208 93 482 59 203 105 296 146 296 14 0 15 -11 10 -77z"/>
<path d="M7000 7544 c-111 -6 -119 -9 -140 -57 -32 -72 -295 -1158 -306 -1267
-10 -85 -8 -85 219 -83 142 2 193 6 198 15 5 7 27 90 49 183 22 94 50 200 61
237 23 77 57 125 82 115 26 -10 22 -91 -13 -262 -36 -177 -40 -239 -19 -260
24 -24 125 -37 252 -33 100 3 120 7 137 24 18 18 46 145 104 458 l14 80 -34
68 c-19 37 -34 73 -34 81 0 7 19 31 41 52 104 100 161 233 161 377 0 109 -23
165 -89 212 -80 56 -97 59 -363 61 -135 1 -279 0 -320 -1z m604 -41 c60 -19
121 -77 135 -130 6 -21 11 -69 11 -108 0 -133 -42 -232 -144 -343 l-65 -71 15
-38 c9 -21 25 -56 36 -77 24 -47 23 -54 -33 -345 -23 -117 -47 -212 -55 -221
-12 -12 -43 -15 -162 -14 -84 1 -159 6 -174 12 -24 10 -28 17 -28 54 0 24 14
111 31 193 48 231 43 295 -21 295 -51 0 -75 -59 -149 -360 l-46 -185 -190 0
-190 0 3 48 c5 106 286 1265 313 1292 12 12 336 22 529 17 83 -2 154 -10 184
-19z"/>
<path d="M7240 7297 c-32 -16 -41 -36 -84 -186 l-36 -124 22 -24 c40 -42 71
-29 145 62 52 65 83 126 83 166 0 43 -34 95 -72 108 -17 6 -31 11 -32 11 -1 0
-12 -6 -26 -13z m90 -49 c26 -42 25 -74 -1 -123 -32 -59 -109 -154 -131 -161
-23 -7 -48 12 -48 36 0 24 70 252 82 268 6 6 26 12 44 12 28 0 38 -6 54 -32z"/>
<path d="M7973 7538 c-10 -13 -161 -636 -214 -883 -39 -181 -47 -287 -24 -354
20 -63 63 -115 116 -142 140 -71 464 -68 611 7 118 60 191 180 273 449 48 157
202 766 210 830 12 92 -19 104 -256 105 -106 0 -149 -3 -156 -12 -6 -7 -54
-188 -107 -402 -154 -612 -179 -691 -221 -691 -17 0 -19 7 -16 60 3 66 36 242
82 435 52 217 107 463 113 510 12 86 -20 98 -260 99 -102 1 -144 -2 -151 -11z
m370 -23 c33 -13 21 -94 -68 -459 -68 -280 -107 -482 -109 -561 l-1 -70 31 -3
c66 -6 82 36 242 673 l109 430 169 -1 c204 -1 219 -6 210 -67 -19 -119 -173
-716 -233 -902 -67 -209 -144 -324 -251 -373 -173 -79 -529 -64 -625 26 -55
51 -71 97 -70 197 1 98 17 181 100 530 30 127 72 307 94 400 22 94 42 176 44
184 5 12 35 13 173 8 92 -3 175 -9 185 -12z"/>
<path d="M9132 7541 c-23 -4 -46 -12 -51 -17 -30 -31 -331 -1212 -334 -1308
-3 -83 8 -88 183 -84 160 4 179 12 215 91 13 29 40 120 60 202 21 83 41 154
45 158 8 9 14 -68 26 -303 4 -69 11 -131 16 -137 8 -10 65 -13 225 -13 l214 0
15 35 c24 57 335 1317 332 1344 -2 18 -12 27 -33 33 -31 10 -302 3 -342 -8
-26 -7 -45 -59 -92 -250 -17 -67 -35 -132 -40 -145 -10 -27 -11 -17 -31 225
-17 204 2 186 -197 185 -93 -1 -187 -5 -211 -8z m368 -20 c0 -5 4 -43 10 -83
5 -40 14 -142 20 -226 14 -199 20 -216 48 -132 12 36 31 103 42 150 54 218 72
271 97 281 13 5 96 9 184 9 124 0 159 -3 159 -13 0 -34 -333 -1343 -343 -1349
-7 -4 -102 -7 -212 -5 l-200 2 -2 60 c-8 195 -25 427 -32 447 -9 22 -10 21
-26 -17 -10 -22 -37 -117 -61 -211 -49 -198 -64 -237 -96 -257 -52 -33 -313
-33 -325 1 -7 18 17 133 98 457 98 393 225 864 235 875 16 16 404 26 404 11z"/>
<path d="M4038 5353 c-71 -2 -128 -7 -128 -11 0 -12 50 -127 416 -959 30 -68
78 -178 108 -245 247 -564 585 -1327 1459 -3301 201 -453 212 -476 219 -440 4
21 7 1146 7 2501 l1 2462 -977 -2 c-538 -1 -1035 -4 -1105 -5z m2060 -1338 c2
-726 0 -1822 -4 -2435 -6 -1111 -7 -1114 -26 -1076 -18 35 -211 469 -628 1411
-95 215 -268 606 -385 870 -242 547 -397 897 -615 1395 -38 85 -163 370 -279
633 -116 264 -212 486 -213 495 -3 16 40 17 507 22 281 3 764 5 1075 5 l565 0
3 -1320z"/>
<path d="M6478 4448 c1 -502 7 -1097 11 -1321 10 -478 8 -471 86 -385 26 29
253 311 504 627 251 316 645 811 876 1101 231 290 480 603 553 694 72 92 132
170 132 175 0 18 -191 21 -1159 21 l-1006 0 3 -912z m1980 885 c78 -3 142 -9
142 -12 0 -4 -50 -69 -111 -146 -61 -77 -291 -365 -510 -640 -460 -578 -682
-858 -969 -1220 -293 -370 -463 -578 -476 -582 -18 -6 -23 230 -30 1450 l-7
1157 909 0 c500 0 973 -3 1052 -7z"/>
</g>
</svg>
